<svg width="49" height="48" viewBox="0 0 49 48" fill="none" xmlns="http://www.w3.org/2000/svg">
<ellipse cx="24.1186" cy="24" rx="24.0198" ry="24" fill="#EAB817"/>
<path d="M35.2646 36.3606C34.0446 36.3606 33.0194 35.3689 33.0194 34.1499C33.0194 32.9309 34.0446 31.9392 35.2646 31.9392V10H16.5725C14.5875 10 12.9727 11.6136 12.9727 13.5969V34.4914H12.9886C13.1622 36.4549 14.8164 38 16.8259 38H35.2646V36.3606ZM33.6161 30.2998H19.5605V11.6394H33.6162V30.2998H33.6161ZM16.5725 11.6394H17.9198V30.2998H16.8259C16.0029 30.2998 15.2401 30.5598 14.6134 31.0006V13.5969C14.6134 12.5175 15.4922 11.6394 16.5725 11.6394ZM14.6134 34.1499C14.6134 32.9309 15.6059 31.9392 16.8259 31.9392H32.0801C31.7913 32.3491 31.5804 32.8173 31.4692 33.3227H17.1304V34.9621H31.4657C31.5761 35.4733 31.7884 35.9466 32.0801 36.3606H16.8259C15.6059 36.3606 14.6134 35.3689 14.6134 34.1499Z" fill="#100D00"/>
<path d="M23.6161 22.7336L26.5419 21.8701L29.4677 22.7336L29.5499 19.6864L31.2759 17.173L28.4009 16.1532L26.5419 13.7363L24.6829 16.1532L21.8079 17.173L23.5339 19.6864L23.6161 22.7336ZM25.6885 17.5362L26.5419 16.4266L27.3954 17.5362L28.7153 18.0044L27.9229 19.1583L27.8851 20.5572L26.5419 20.1607L25.1987 20.5572L25.161 19.1583L24.3686 18.0044L25.6885 17.5362Z" fill="#100D00"/>
<path d="M21.7085 26.7131H23.353V28.2662H21.7085V26.7131Z" fill="#100D00"/>
<path d="M23.353 25.0688H24.9085V26.7132H23.353V25.0688Z" fill="#100D00"/>
<path d="M29.5376 25.0688H31.086V26.7082H29.5376V25.0688Z" fill="#100D00"/>
</svg>
