<svg width="25" height="24" viewBox="0 0 25 24" fill="none" xmlns="http://www.w3.org/2000/svg">
<path d="M22.8266 7.90309C22.8143 7.06376 22.6586 6.23107 22.3605 5.44606C21.8387 4.10556 20.7763 3.04557 19.4314 2.52667C18.6538 2.23506 17.8317 2.07872 16.9996 2.06098C15.9294 2.01331 15.5901 2 12.8735 2C10.1569 2 9.80873 2 8.74634 2.06098C7.91534 2.07872 7.09324 2.23506 6.31564 2.52667C4.97069 3.04557 3.90719 4.10556 3.38657 5.44606C3.09399 6.22109 2.93603 7.04047 2.92045 7.86872C2.87262 8.93647 2.85815 9.27464 2.85815 11.9823C2.85815 14.6899 2.85815 15.0358 2.92045 16.0958C2.93714 16.9252 3.09399 17.7434 3.38657 18.5207C3.9083 19.8601 4.97069 20.9201 6.31675 21.439C7.09102 21.7406 7.91312 21.9113 8.74745 21.9379C9.81874 21.9856 10.158 22 12.8746 22C15.5912 22 15.9394 22 17.0018 21.9379C17.8328 21.9213 18.6549 21.7649 19.4336 21.4733C20.7786 20.9533 21.841 19.8933 22.3627 18.5539C22.6553 17.7778 22.8121 16.9595 22.8288 16.1291C22.8766 15.0624 22.8911 14.7243 22.8911 12.0155C22.8889 9.30791 22.8889 8.96419 22.8266 7.90309ZM12.8668 17.1026C10.0257 17.1026 7.724 14.8085 7.724 11.9767C7.724 9.14492 10.0257 6.85087 12.8668 6.85087C15.7058 6.85087 18.0097 9.14492 18.0097 11.9767C18.0097 14.8085 15.7058 17.1026 12.8668 17.1026ZM18.2144 7.85653C17.5502 7.85653 17.0152 7.3221 17.0152 6.66127C17.0152 6.00044 17.5502 5.46602 18.2144 5.46602C18.8763 5.46602 19.4125 6.00044 19.4125 6.66127C19.4125 7.3221 18.8763 7.85653 18.2144 7.85653Z" fill="#989898"/>
<path d="M12.8712 15.3133C14.717 15.3133 16.2134 13.8195 16.2134 11.9767C16.2134 10.1339 14.717 8.64 12.8712 8.64C11.0254 8.64 9.52905 10.1339 9.52905 11.9767C9.52905 13.8195 11.0254 15.3133 12.8712 15.3133Z" fill="#989898"/>
</svg>
