<svg width="24" height="24" viewBox="0 0 24 24" fill="none" xmlns="http://www.w3.org/2000/svg">
<path d="M9.6627 15.6424L10.2387 15.5432C10.3503 15.5234 10.4835 15.4946 10.6374 15.4549C12.54 14.9772 13.8 13.5531 13.8 12.0135C13.8 10.0891 11.8416 8.40812 9.3 8.40812C6.7584 8.40812 4.8 10.0891 4.8 12.0135C4.8 13.1114 5.4318 14.157 6.5379 14.8528L6.5703 14.8708L7.5 15.3846V17.875L9.6627 15.6424ZM10.5465 17.3189L7.2462 20.726C7.12148 20.8549 6.96119 20.9435 6.78586 20.9806C6.61053 21.0176 6.42815 21.0014 6.26207 20.934C6.09599 20.8667 5.95377 20.7512 5.85364 20.6023C5.7535 20.4535 5.70001 20.2781 5.7 20.0987V16.4482C5.65979 16.4264 5.62018 16.4036 5.5812 16.3797C4.0161 15.3954 3 13.8063 3 12.0135C3 9.02645 5.8206 6.60542 9.3 6.60542C12.7794 6.60542 15.6 9.02645 15.6 12.0135C15.6 14.4706 13.6911 16.5455 11.0766 17.2035C10.9014 17.2485 10.7246 17.287 10.5465 17.3189ZM9.2424 5.70406C10.3314 4.08793 12.369 3 14.7 3C18.1794 3 21 5.42104 21 8.40812C21 10.2009 19.983 11.79 18.4188 12.7743C18.3798 12.7982 18.3402 12.821 18.3 12.8428V16.4933C18.3 16.6727 18.2465 16.8481 18.1464 16.9969C18.0462 17.1457 17.904 17.2612 17.7379 17.3286C17.5719 17.396 17.3895 17.4122 17.2141 17.3752C17.0388 17.3381 16.8785 17.2495 16.7538 17.1206L15.1923 15.509L16.131 13.8884L16.5 14.2696V11.7792L17.4297 11.2654L17.4621 11.2474C18.5691 10.5515 19.2 9.50597 19.2 8.40812C19.2 6.48373 17.2416 4.80271 14.7 4.80271C13.548 4.80271 12.5166 5.14793 11.7327 5.70406H9.2424Z" fill="#3E3E3E"/>
<mask id="mask0" mask-type="alpha" maskUnits="userSpaceOnUse" x="3" y="3" width="18" height="18">
<path d="M9.6627 15.6424L10.2387 15.5432C10.3503 15.5234 10.4835 15.4946 10.6374 15.4549C12.54 14.9772 13.8 13.5531 13.8 12.0135C13.8 10.0891 11.8416 8.40812 9.3 8.40812C6.7584 8.40812 4.8 10.0891 4.8 12.0135C4.8 13.1114 5.4318 14.157 6.5379 14.8528L6.5703 14.8708L7.5 15.3846V17.875L9.6627 15.6424ZM10.5465 17.3189L7.2462 20.726C7.12148 20.8549 6.96119 20.9435 6.78586 20.9806C6.61053 21.0176 6.42815 21.0014 6.26207 20.934C6.09599 20.8667 5.95377 20.7512 5.85364 20.6023C5.7535 20.4535 5.70001 20.2781 5.7 20.0987V16.4482C5.65979 16.4264 5.62018 16.4036 5.5812 16.3797C4.0161 15.3954 3 13.8063 3 12.0135C3 9.02645 5.8206 6.60542 9.3 6.60542C12.7794 6.60542 15.6 9.02645 15.6 12.0135C15.6 14.4706 13.6911 16.5455 11.0766 17.2035C10.9014 17.2485 10.7246 17.287 10.5465 17.3189ZM9.2424 5.70406C10.3314 4.08793 12.369 3 14.7 3C18.1794 3 21 5.42104 21 8.40812C21 10.2009 19.983 11.79 18.4188 12.7743C18.3798 12.7982 18.3402 12.821 18.3 12.8428V16.4933C18.3 16.6727 18.2465 16.8481 18.1464 16.9969C18.0462 17.1457 17.904 17.2612 17.7379 17.3286C17.5719 17.396 17.3895 17.4122 17.2141 17.3752C17.0388 17.3381 16.8785 17.2495 16.7538 17.1206L15.1923 15.509L16.131 13.8884L16.5 14.2696V11.7792L17.4297 11.2654L17.4621 11.2474C18.5691 10.5515 19.2 9.50597 19.2 8.40812C19.2 6.48373 17.2416 4.80271 14.7 4.80271C13.548 4.80271 12.5166 5.14793 11.7327 5.70406H9.2424Z" fill="#3E3E3E"/>
</mask>
<g mask="url(#mask0)">
<path d="M5.5 5.5L15 7L16.5 9.5L16 12.5L14 17L18 19.5L20.5 14.5L23.5 5.5L16 0L5.5 5.5Z" fill="#EAB817"/>
</g>
</svg>
