<svg width="24" height="24" viewBox="0 0 24 24" fill="none" xmlns="http://www.w3.org/2000/svg">
<path d="M10.9286 12C10.9286 12.2842 11.0415 12.5567 11.2424 12.7576C11.4433 12.9585 11.7158 13.0714 12 13.0714C12.2842 13.0714 12.5567 12.9585 12.7576 12.7576C12.9585 12.5567 13.0714 12.2842 13.0714 12C13.0714 11.7158 12.9585 11.4433 12.7576 11.2424C12.5567 11.0415 12.2842 10.9286 12 10.9286C11.7158 10.9286 11.4433 11.0415 11.2424 11.2424C11.0415 11.4433 10.9286 11.7158 10.9286 12ZM15.3928 12C15.3928 12.2842 15.5057 12.5567 15.7066 12.7576C15.9076 12.9585 16.1801 13.0714 16.4642 13.0714C16.7484 13.0714 17.0209 12.9585 17.2218 12.7576C17.4228 12.5567 17.5356 12.2842 17.5356 12C17.5356 11.7158 17.4228 11.4433 17.2218 11.2424C17.0209 11.0415 16.7484 10.9286 16.4642 10.9286C16.1801 10.9286 15.9076 11.0415 15.7066 11.2424C15.5057 11.4433 15.3928 11.7158 15.3928 12ZM6.46436 12C6.46436 12.2842 6.57724 12.5567 6.77817 12.7576C6.9791 12.9585 7.25162 13.0714 7.53577 13.0714C7.81993 13.0714 8.09245 12.9585 8.29338 12.7576C8.49431 12.5567 8.60719 12.2842 8.60719 12C8.60719 11.7158 8.49431 11.4433 8.29338 11.2424C8.09245 11.0415 7.81993 10.9286 7.53577 10.9286C7.25162 10.9286 6.9791 11.0415 6.77817 11.2424C6.57724 11.4433 6.46436 11.7158 6.46436 12ZM21.2231 8.125C20.7186 6.92634 19.9954 5.85045 19.0736 4.92634C18.1582 4.00758 17.0714 3.27728 15.875 2.77679C14.6473 2.26116 13.3437 2 12 2H11.9554C10.6027 2.0067 9.29245 2.27455 8.06032 2.80134C6.87408 3.30697 5.79754 4.03857 4.89072 4.95536C3.97778 5.87723 3.26127 6.94866 2.76574 8.14286C2.25236 9.37946 1.99343 10.6942 2.00013 12.0469C2.0077 13.597 2.37443 15.1243 3.07154 16.5089V19.9018C3.07154 20.1741 3.17972 20.4353 3.37228 20.6278C3.56483 20.8204 3.826 20.9286 4.09831 20.9286H7.49336C8.87793 21.6257 10.4052 21.9924 11.9554 22H12.0022C13.3393 22 14.6361 21.7411 15.8571 21.2344C17.0475 20.7398 18.1302 20.0181 19.0446 19.1094C19.9664 18.1964 20.6919 17.1295 21.1985 15.9397C21.7253 14.7076 21.9932 13.3973 21.9999 12.0446C22.0066 10.6853 21.7432 9.36607 21.2231 8.125ZM17.8504 17.9018C16.2857 19.4509 14.2098 20.3036 12 20.3036H11.9621C10.6161 20.2969 9.27905 19.9621 8.09827 19.3326L7.91077 19.2321H4.76795V16.0893L4.6675 15.9018C4.03805 14.721 3.70323 13.3839 3.69653 12.0379C3.68761 9.8125 4.53804 7.72321 6.09829 6.14955C7.65631 4.57589 9.73887 3.70536 11.9643 3.69643H12.0022C13.1183 3.69643 14.2009 3.91295 15.2209 4.34152C16.2165 4.75893 17.1093 5.35938 17.8772 6.12723C18.6428 6.89286 19.2454 7.78795 19.6629 8.78348C20.0959 9.81473 20.3124 10.9085 20.3079 12.0379C20.2945 14.2612 19.4218 16.3438 17.8504 17.9018Z" fill="#3E3E3E"/>
</svg>
