<svg width="49" height="48" viewBox="0 0 49 48" fill="none" xmlns="http://www.w3.org/2000/svg">
<ellipse cx="24.4699" cy="24" rx="24.0198" ry="24" fill="#EAB817"/>
<path d="M24.2507 14.3397C23.7635 13.8528 23.1156 13.5847 22.4266 13.5847C21.7375 13.5847 21.0897 13.8528 20.6024 14.3397C19.7496 15.1916 19.6203 16.4964 20.2133 17.4865L14.0262 29.2885C13.7344 29.1764 13.4216 29.117 13.0996 29.117C12.4105 29.117 11.7627 29.3851 11.2753 29.872C10.2696 30.877 10.2696 32.5123 11.2753 33.5174L15.0063 37.2451C15.4935 37.7318 16.1413 38.0001 16.8304 38.0001C17.5195 38.0001 18.1673 37.7318 18.6545 37.2451C19.3968 36.5032 19.5908 35.4185 19.2373 34.4969L20.379 33.8994C20.4513 33.981 20.5253 34.0613 20.6024 34.1384C21.6197 35.1551 22.9555 35.663 24.2918 35.663C25.6278 35.6628 26.9644 35.1546 27.9815 34.1384C29.2899 32.8311 29.7945 30.9574 29.3579 29.1999L31.0491 28.3149C31.4457 28.553 31.9006 28.6804 32.3755 28.6806C33.0643 28.6806 33.7121 28.4125 34.1994 27.9256C35.2053 26.9205 35.2053 25.2853 34.1994 24.2802L24.2507 14.3397ZM17.4936 36.085C17.3164 36.2618 17.081 36.3592 16.8304 36.3592C16.5798 36.3592 16.3444 36.2618 16.1674 36.085L12.4364 32.3572C12.0708 31.9919 12.0708 31.3974 12.4364 31.0321C12.6137 30.855 12.849 30.7576 13.0996 30.7576C13.35 30.7576 13.5854 30.855 13.7624 31.0319C13.7626 31.0319 13.7626 31.0321 13.7626 31.0321L17.4936 34.7596V34.7599C17.6706 34.9367 17.7681 35.1719 17.7681 35.4223C17.7681 35.6727 17.6706 35.9079 17.4936 36.085ZM26.8206 32.9785C26.1234 33.6751 25.2077 34.0233 24.292 34.0233C23.4336 34.0231 22.575 33.7172 21.8968 33.1049L27.84 29.9946C27.9802 31.0768 27.6185 32.1812 26.8206 32.9785ZM27.9806 28.0688C27.9798 28.0692 27.9789 28.0698 27.9779 28.0703L18.2278 33.1733L16.7891 31.7358L15.3503 30.2983L21.392 18.774L29.7616 27.1367L27.9806 28.0688ZM33.0387 26.7654C32.8614 26.9423 32.626 27.04 32.3757 27.04H32.3755C32.1249 27.0397 31.8895 26.9423 31.7123 26.7654L21.7636 16.8249C21.398 16.4594 21.3978 15.8649 21.7634 15.4998C21.9404 15.3228 22.176 15.2253 22.4266 15.2253C22.6769 15.2253 22.9125 15.3228 23.0896 15.4996L33.0385 25.4403C33.4041 25.8056 33.4041 26.4002 33.0387 26.7654Z" fill="#100D00"/>
<path d="M33.3083 16.0504C33.5183 16.0504 33.7285 15.9703 33.8888 15.8101L38.3023 11.4003C38.623 11.0801 38.623 10.5605 38.3023 10.2403C37.9818 9.91989 37.462 9.91989 37.1413 10.2403L32.7277 14.6501C32.4072 14.9706 32.4072 15.4899 32.7277 15.8101C32.888 15.9703 33.0982 16.0504 33.3083 16.0504Z" fill="#100D00"/>
<path d="M28.1946 14.3633C28.3334 14.4541 28.4895 14.4977 28.6438 14.4977C28.9115 14.4977 29.1738 14.3671 29.3314 14.1268L31.2045 11.27C31.4529 10.8911 31.3469 10.3824 30.9676 10.1342C30.5883 9.88597 30.0793 9.99193 29.8308 10.3709L27.958 13.2277C27.7093 13.6066 27.8154 14.1151 28.1946 14.3633Z" fill="#100D00"/>
<path d="M38.4084 17.569C38.16 17.1903 37.6511 17.0841 37.2719 17.3325L34.4127 19.2041C34.0334 19.4523 33.9274 19.9608 34.1758 20.3397C34.3334 20.58 34.5957 20.7106 34.8634 20.7106C35.0178 20.7106 35.1738 20.6672 35.3126 20.5764L38.1715 18.7049C38.5508 18.4564 38.6568 17.948 38.4084 17.569Z" fill="#100D00"/>
</svg>
