<svg width="49" height="48" viewBox="0 0 49 48" fill="none" xmlns="http://www.w3.org/2000/svg">
<ellipse cx="24.8528" cy="24" rx="24.0198" ry="24" fill="#EAB817"/>
<path d="M38.3247 28.921L37.3475 27.9508C36.9999 27.6051 36.5366 27.4147 36.0429 27.4147C35.7273 27.4147 35.4243 27.4929 35.1558 27.6394L33.3144 25.8081L33.4041 25.7189C34.1511 24.9736 34.1508 23.7626 33.404 23.0198C33.1371 22.7536 32.8041 22.5761 32.4411 22.5014C32.4911 22.3296 32.5174 22.1497 32.5174 21.9656C32.5174 21.4539 32.3178 20.9742 31.9565 20.616C31.6896 20.3498 31.3566 20.1722 30.9936 20.0975C31.0436 19.9258 31.0699 19.7459 31.0699 19.5617C31.0699 19.05 30.8703 18.5704 30.5084 18.2116C30.2351 17.9398 29.8992 17.7677 29.5464 17.6945C29.7351 17.0466 29.5739 16.3177 29.062 15.8071C28.6359 15.3847 28.0577 15.2031 27.5005 15.2619L23.8516 14.5742C23.2951 14.4691 22.6001 14.3996 22.1614 14.798C22.1337 14.8232 22.1055 14.8521 22.0777 14.8843C21.3975 14.6375 20.6042 14.7845 20.0595 15.3262C19.6982 15.6856 19.4991 16.1651 19.4991 16.6764C19.4991 16.8606 19.5253 17.0404 19.5753 17.2123C19.2127 17.2869 18.8801 17.4642 18.6141 17.7296C18.252 18.0886 18.0524 18.5675 18.052 19.0783C18.0518 19.2629 18.0781 19.4434 18.1283 19.6156C17.7656 19.6901 17.4328 19.8671 17.166 20.1324C16.8039 20.4925 16.6045 20.9723 16.6045 21.4834C16.6045 21.8748 16.7219 22.2477 16.9394 22.5627C16.6648 22.6554 16.4132 22.8097 16.2026 23.0192C15.4551 23.7626 15.4548 24.9737 16.2031 25.7201L16.2924 25.8087L14.4508 27.639C13.7664 27.3182 12.9232 27.4384 12.3584 28L11.3806 28.9708C11.0328 29.3167 10.8414 29.778 10.8413 30.2698C10.8413 30.7617 11.0328 31.2231 11.3806 31.569L12.6009 32.7825C12.817 32.9975 13.1672 32.9972 13.3831 32.7821C13.599 32.5669 13.5988 32.2181 13.3827 32.0032L12.1624 30.7897C12.0239 30.6519 11.9476 30.4673 11.9476 30.2699C11.9476 30.0725 12.0239 29.8879 12.1621 29.7505L13.1399 28.7796C13.3842 28.5367 13.7581 28.5004 14.0421 28.6695C14.0621 28.6994 14.0852 28.7278 14.1117 28.7543C14.1591 28.8016 14.2132 28.8378 14.2706 28.8643L19.878 34.4394C19.9046 34.4972 19.9412 34.5516 19.989 34.5992C20.0354 34.6455 20.0884 34.6813 20.1447 34.7077C20.2632 34.8411 20.3288 35.0117 20.3288 35.1936C20.3288 35.391 20.2525 35.5756 20.114 35.7133L19.1371 36.6848C18.8485 36.9709 18.379 36.9708 18.0913 36.6857L16.871 35.4705C16.655 35.2555 16.3048 35.2555 16.0888 35.4705C15.8728 35.6856 15.8728 36.0343 16.0888 36.2494L17.3099 37.4654C17.6693 37.8218 18.1414 37.9999 18.6136 37.9999C19.0859 37.9999 19.5585 37.8215 19.9184 37.4648L20.8958 36.4927C21.2436 36.1468 21.4351 35.6855 21.4351 35.1936C21.4351 34.8425 21.3371 34.5073 21.1548 34.2182L23.2274 32.157C23.2296 32.1548 23.2318 32.1525 23.234 32.1503C23.4714 31.906 24.1323 31.9517 24.7714 31.9959C25.2255 32.0274 25.7318 32.0623 26.2265 32.0055L28.4962 34.2628C28.3491 34.5297 28.2707 34.831 28.2707 35.1448C28.2707 35.6362 28.4622 36.0973 28.81 36.4432L29.7875 37.4152C30.135 37.7609 30.5983 37.9513 31.092 37.9513C31.5856 37.9513 32.0488 37.761 32.3965 37.4152L38.3251 31.5194C38.6728 31.1735 38.8644 30.7122 38.8644 30.2203C38.8643 29.7285 38.6728 29.2672 38.3247 28.921ZM23.6456 15.6565L26.0451 16.1087L24.6089 17.5382C24.3867 17.4319 24.0822 17.2336 23.7481 16.9154C23.2909 16.4799 22.9638 15.977 22.9341 15.6634C22.9319 15.6409 22.9312 15.6222 22.9315 15.6085C23.0039 15.591 23.196 15.5716 23.6456 15.6565ZM20.8413 16.1056C21.1215 15.8268 21.5568 15.7947 21.8735 16.0082C22.0529 16.7573 22.6947 17.4362 22.9834 17.7113C23.1974 17.9152 23.884 18.5264 24.5771 18.6944C24.6708 18.8282 24.7218 18.9878 24.7218 19.1561C24.7218 19.3729 24.6381 19.5756 24.4854 19.7275C24.3332 19.8793 24.1293 19.9628 23.9112 19.9628C23.6929 19.9628 23.489 19.8793 23.3361 19.7268L20.8412 17.2471C20.6891 17.0959 20.6054 16.8932 20.6054 16.6764C20.6054 16.4595 20.6892 16.2568 20.8413 16.1056ZM19.3959 18.5089C19.5481 18.3572 19.7518 18.2735 19.9696 18.2735C20.1877 18.2735 20.3921 18.3573 20.5453 18.5097L22.554 20.5057C22.8703 20.8212 22.8703 21.3345 22.5551 21.6488C22.4021 21.8006 22.1974 21.8841 21.9789 21.8841C21.7603 21.8841 21.5557 21.8006 21.4033 21.6495L19.8794 20.1324C19.877 20.1301 19.8744 20.1279 19.872 20.1255L19.3953 19.651C19.2423 19.4989 19.1581 19.2958 19.1583 19.0791C19.1585 18.8631 19.2424 18.6611 19.3959 18.5089ZM17.9477 20.9118C18.1001 20.7603 18.3042 20.6769 18.5227 20.6769C18.7394 20.6769 18.9418 20.7591 19.0934 20.9079L20.622 22.4292C20.7744 22.5803 20.8584 22.7829 20.8584 22.9994C20.8584 23.2159 20.7744 23.4184 20.6214 23.5702C20.4691 23.7216 20.2652 23.805 20.0471 23.805C19.8286 23.805 19.624 23.7214 19.4716 23.5702L18.9174 23.0191L17.9478 22.0548C17.795 21.9028 17.7109 21.6998 17.7109 21.4833C17.7109 21.2668 17.795 21.0637 17.9477 20.9118ZM16.9844 23.7985C17.1373 23.6464 17.3418 23.5626 17.56 23.5626C17.7781 23.5626 17.9825 23.6463 18.1354 23.7984L18.6903 24.3502C18.8428 24.5014 18.9267 24.7039 18.9267 24.9204C18.9267 25.137 18.8427 25.3394 18.6892 25.4918C18.537 25.6436 18.333 25.7272 18.1149 25.7272C17.8967 25.7272 17.6927 25.6436 17.5394 25.4907L17.47 25.4218L17.4674 25.419L17.4642 25.4162L16.9849 24.9408C16.6686 24.6252 16.6683 24.1128 16.9844 23.7985ZM28.2567 30.058C28.0408 29.8427 27.6905 29.8425 27.4745 30.0575L26.9824 30.5469C26.5147 31.0125 25.6674 30.9538 24.848 30.8972C23.9582 30.8357 23.038 30.7721 22.4426 31.3808L20.4052 33.407L15.3102 28.3414L17.1133 26.5494C17.4113 26.7313 17.7552 26.8288 18.115 26.8288C18.629 26.8288 19.111 26.6304 19.4711 26.2712C19.8335 25.9118 20.0332 25.4321 20.0332 24.9205C20.0332 24.9157 20.0328 24.911 20.0328 24.9063C20.0376 24.9063 20.0424 24.9066 20.0472 24.9066C20.5605 24.9066 21.0421 24.7088 21.4027 24.3503C21.7651 23.9909 21.9647 23.5111 21.9647 22.9995C21.9647 22.9948 21.9644 22.9901 21.9644 22.9853C21.9692 22.9853 21.9741 22.9856 21.979 22.9856C22.4921 22.9856 22.974 22.7881 23.337 22.4282C23.7138 22.0524 23.9001 21.5577 23.8965 21.064C23.9015 21.0641 23.9064 21.0644 23.9114 21.0644C24.4254 21.0643 24.9074 20.8659 25.268 20.5063C25.6293 20.1469 25.8283 19.6674 25.8283 19.1561C25.8283 18.7985 25.7307 18.4566 25.5486 18.1605L27.129 16.5876C27.2467 16.4709 27.3919 16.3976 27.5441 16.3673C27.5606 16.3656 27.5769 16.363 27.593 16.3598C27.8371 16.3263 28.0936 16.4013 28.2803 16.5865C28.5966 16.902 28.5966 17.4153 28.2815 17.7296L27.8002 18.2069C27.7986 18.2085 27.7969 18.2099 27.7953 18.2115L27.2409 18.7625C27.0248 18.9774 27.0245 19.3262 27.2404 19.5414C27.4564 19.7566 27.8066 19.7568 28.0227 19.5419L28.5059 19.0614L28.5793 18.9886C28.8965 18.6757 29.4103 18.6763 29.7272 18.9914C29.8797 19.1425 29.9636 19.345 29.9636 19.5616C29.9636 19.7781 29.8797 19.9806 29.726 20.133L29.2419 20.6159L28.6875 21.1658C28.471 21.3804 28.4703 21.7292 28.6859 21.9447C28.9015 22.1602 29.2517 22.1608 29.4681 21.9462L30.0249 21.3941C30.1771 21.2423 30.3811 21.1587 30.5992 21.1587C30.8174 21.1587 31.0214 21.2423 31.1747 21.3952C31.3272 21.5464 31.4111 21.7489 31.4111 21.9654C31.4111 22.182 31.3272 22.3845 31.1739 22.5365L30.2088 23.4977C29.9929 23.7129 29.9929 24.0616 30.2089 24.2766C30.317 24.3841 30.4585 24.4378 30.6 24.4378C30.7416 24.4378 30.8832 24.384 30.9912 24.2764L31.4641 23.8054C31.4668 23.8028 31.4697 23.8005 31.4724 23.7979C31.6246 23.646 31.8285 23.5625 32.0467 23.5625C32.2649 23.5625 32.4689 23.646 32.6216 23.7984C32.9376 24.1127 32.9373 24.6251 32.6216 24.94L32.1407 25.4183L32.1397 25.4193L31.3765 26.1783C31.1603 26.3933 31.1601 26.742 31.376 26.9572C31.484 27.0649 31.6257 27.1188 31.7674 27.1188C31.9088 27.1188 32.0503 27.0651 32.1583 26.9577L32.5316 26.5864L34.3208 28.3659L29.2263 33.4323L27.401 31.617C27.5282 31.5355 27.65 31.4397 27.7643 31.3259L28.2562 30.8368C28.4724 30.6219 28.4726 30.2731 28.2567 30.058ZM37.5432 30.74L31.6146 36.6359C31.4759 36.7738 31.2903 36.8498 31.0919 36.8498C30.8935 36.8498 30.7079 36.7738 30.5691 36.6358L29.5916 35.6638C29.4531 35.5261 29.3768 35.3418 29.3768 35.1448C29.3768 34.948 29.4531 34.7637 29.5916 34.6259L35.5202 28.73C35.659 28.5921 35.8446 28.5161 36.043 28.5161C36.2414 28.5161 36.427 28.5921 36.5661 28.7304L37.5433 29.7006C37.6818 29.8383 37.7581 30.0228 37.7581 30.2203C37.758 30.4177 37.6817 30.6023 37.5432 30.74Z" fill="#100D00"/>
<path d="M24.8037 13.558C25.1092 13.558 25.3569 13.3114 25.3569 13.0072V10.5508C25.3569 10.2466 25.1092 10 24.8037 10C24.4982 10 24.2506 10.2466 24.2506 10.5508V13.0072C24.2506 13.3114 24.4983 13.558 24.8037 13.558Z" fill="#100D00"/>
<path d="M17.4588 13.0937C17.5667 13.201 17.7081 13.2546 17.8495 13.2546C17.9912 13.2546 18.133 13.2006 18.241 13.0929C18.4568 12.8776 18.4565 12.5289 18.2402 12.314L16.2246 10.3111C16.0084 10.0962 15.6582 10.0965 15.4424 10.3118C15.2266 10.5271 15.2269 10.8758 15.4431 11.0907L17.4588 13.0937Z" fill="#100D00"/>
<path d="M31.758 13.2546C31.8994 13.2546 32.0409 13.2009 32.1489 13.0935L34.163 11.0905C34.3791 10.8756 34.3793 10.5269 34.1634 10.3117C33.9476 10.0965 33.5974 10.0962 33.3812 10.3112L31.3671 12.3142C31.151 12.5291 31.1507 12.8779 31.3667 13.0931C31.4747 13.2008 31.6163 13.2546 31.758 13.2546Z" fill="#100D00"/>
<path d="M14.2424 33.6909C14.0283 33.9078 14.0312 34.2565 14.2491 34.4698L14.2507 34.4713C14.3582 34.5765 14.4978 34.6289 14.6373 34.6289C14.7805 34.6289 14.9236 34.5737 15.0321 34.4639C15.2463 34.247 15.2425 33.8974 15.0247 33.6842C14.8069 33.471 14.4567 33.474 14.2424 33.6909Z" fill="#100D00"/>
<path d="M29.6096 29.2646C29.6937 29.2646 29.7791 29.2456 29.8592 29.2054C30.132 29.0684 30.2416 28.7372 30.104 28.4656C29.9664 28.194 29.6338 28.0849 29.3611 28.2219L29.358 28.2234C29.0852 28.3604 28.9772 28.6908 29.1147 28.9624C29.2118 29.1542 29.4071 29.2646 29.6096 29.2646Z" fill="#100D00"/>
</svg>
