<svg width="25" height="24" viewBox="0 0 25 24" fill="none" xmlns="http://www.w3.org/2000/svg">
<path d="M22.3263 6.81264C22.4663 6.34381 22.3263 6 21.6645 6H19.4721C18.9143 6 18.6593 6.29743 18.5194 6.6241C18.5194 6.6241 17.4047 9.36548 15.8251 11.143C15.3152 11.6602 15.0823 11.8236 14.8044 11.8236C14.6654 11.8236 14.4635 11.6602 14.4635 11.1914V6.81264C14.4635 6.25004 14.3025 6 13.8376 6H10.3926C10.0447 6 9.83474 6.26012 9.83474 6.50815C9.83474 7.0405 10.6245 7.1635 10.7055 8.66375V11.9183C10.7055 12.6312 10.5785 12.7612 10.2986 12.7612C9.55582 12.7612 7.74832 10.0097 6.67561 6.86002C6.46667 6.24803 6.25572 6.00101 5.69588 6.00101H3.50448C2.87765 6.00101 2.75269 6.29844 2.75269 6.62511C2.75269 7.2119 3.49548 10.1156 6.21274 13.956C8.02424 16.5784 10.5745 18 12.8979 18C14.2905 18 14.4625 17.6844 14.4625 17.14V15.1578C14.4625 14.5266 14.5954 14.3996 15.0363 14.3996C15.3602 14.3996 15.9181 14.5649 17.2187 15.8283C18.7043 17.3265 18.9502 17.999 19.785 17.999H21.9764C22.6022 17.999 22.9152 17.6834 22.7352 17.0603C22.5383 16.4403 21.8285 15.5379 20.8867 14.4702C20.3749 13.8612 19.6101 13.2058 19.3771 12.8782C19.0522 12.4557 19.1462 12.2692 19.3771 11.8941C19.3781 11.8951 22.0484 8.10217 22.3263 6.81264Z" fill="#989898"/>
</svg>
