<svg width="24" height="24" viewBox="0 0 24 24" fill="none" xmlns="http://www.w3.org/2000/svg">
<path d="M9.6675 17.532V9.531H8.718C8.03797 9.8935 7.38074 10.2973 6.75 10.74V11.7825C7.3125 11.397 8.2035 10.8525 8.637 10.617H8.655V17.532H9.6675ZM11.4495 15.5745C11.52 16.5345 12.3405 17.6835 14.004 17.6835C15.891 17.6835 17.004 16.0845 17.004 13.377C17.004 10.476 15.8325 9.375 14.0745 9.375C12.6855 9.375 11.379 10.383 11.379 12.0885C11.379 13.8285 12.615 14.7435 13.893 14.7435C15.012 14.7435 15.738 14.1795 15.9675 13.5585H16.008C16.002 15.5325 15.3165 16.8045 14.0505 16.8045C13.0545 16.8045 12.5385 16.1295 12.4755 15.5745H11.4495ZM15.879 12.099C15.879 13.143 15.0405 13.869 14.103 13.869C13.2015 13.869 12.387 13.2945 12.387 12.069C12.387 10.8345 13.26 10.254 14.139 10.254C15.0885 10.254 15.879 10.851 15.879 12.099Z" fill="#3E3E3E"/>
<path fill-rule="evenodd" clip-rule="evenodd" d="M1.5 6V21C1.5 21.3978 1.65804 21.7794 1.93934 22.0607C2.22064 22.342 2.60218 22.5 3 22.5H21C21.3978 22.5 21.7794 22.342 22.0607 22.0607C22.342 21.7794 22.5 21.3978 22.5 21V6H1.5ZM3 1.5C2.20435 1.5 1.44129 1.81607 0.87868 2.37868C0.316071 2.94129 0 3.70435 0 4.5L0 21C0 21.7956 0.316071 22.5587 0.87868 23.1213C1.44129 23.6839 2.20435 24 3 24H21C21.7956 24 22.5587 23.6839 23.1213 23.1213C23.6839 22.5587 24 21.7956 24 21V4.5C24 3.70435 23.6839 2.94129 23.1213 2.37868C22.5587 1.81607 21.7956 1.5 21 1.5H3Z" fill="#3E3E3E"/>
<path fill-rule="evenodd" clip-rule="evenodd" d="M5.25 0C5.44891 0 5.63968 0.0790176 5.78033 0.21967C5.92098 0.360322 6 0.551088 6 0.75V1.5C6 1.69891 5.92098 1.88968 5.78033 2.03033C5.63968 2.17098 5.44891 2.25 5.25 2.25C5.05109 2.25 4.86032 2.17098 4.71967 2.03033C4.57902 1.88968 4.5 1.69891 4.5 1.5V0.75C4.5 0.551088 4.57902 0.360322 4.71967 0.21967C4.86032 0.0790176 5.05109 0 5.25 0V0ZM18.75 0C18.9489 0 19.1397 0.0790176 19.2803 0.21967C19.421 0.360322 19.5 0.551088 19.5 0.75V1.5C19.5 1.69891 19.421 1.88968 19.2803 2.03033C19.1397 2.17098 18.9489 2.25 18.75 2.25C18.5511 2.25 18.3603 2.17098 18.2197 2.03033C18.079 1.88968 18 1.69891 18 1.5V0.75C18 0.551088 18.079 0.360322 18.2197 0.21967C18.3603 0.0790176 18.5511 0 18.75 0V0Z" fill="#3E3E3E"/>
</svg>
