<svg width="24" height="24" viewBox="0 0 24 24" fill="none" xmlns="http://www.w3.org/2000/svg">
<path d="M21.1138 11.4457C21.5233 12.0115 21.75 12.7046 21.75 13.4257C21.75 14.5699 21.1382 15.6529 20.1534 16.2568C19.8999 16.4123 19.6113 16.4941 19.3174 16.4938H13.4722L13.6185 19.6256C13.6526 20.3824 13.3967 21.101 12.8994 21.6489C12.6554 21.9189 12.361 22.1338 12.0344 22.2802C11.7078 22.4265 11.356 22.5014 11.0006 22.5C9.73312 22.5 8.61188 21.6081 8.2755 20.3314L6.18169 12.4064H3.03C2.59856 12.4064 2.25 12.042 2.25 11.591V2.31543C2.25 1.8644 2.59856 1.5 3.03 1.5H17.6867C17.9109 1.5 18.1303 1.54587 18.3326 1.63761C19.4929 2.1549 20.2412 3.33982 20.2412 4.65471C20.2412 4.97579 20.1973 5.29177 20.1096 5.59756C20.5191 6.16327 20.7457 6.85638 20.7457 7.57753C20.7457 7.89861 20.7019 8.21459 20.6141 8.52038C21.0236 9.08609 21.2503 9.77921 21.2503 10.5004C21.2454 10.8214 21.2016 11.14 21.1138 11.4457ZM4.005 3.33473V10.5717H5.97937V3.33473H4.005ZM19.5173 12.33L18.9834 11.8458L19.3223 11.1986C19.4339 10.9854 19.4918 10.746 19.4904 10.5029C19.4904 10.0824 19.3149 9.68237 19.0127 9.40716L18.4789 8.923L18.8177 8.27575C18.9293 8.06254 18.9872 7.82313 18.9859 7.58008C18.9859 7.15962 18.8104 6.75955 18.5081 6.48434L17.9743 6.00018L18.3131 5.35293C18.4247 5.13972 18.4826 4.90031 18.4813 4.65726C18.4813 4.08646 18.1596 3.57171 17.6623 3.33727H7.53937V10.6532L9.96469 19.8396C10.0272 20.0751 10.1615 20.2828 10.3471 20.4313C10.5327 20.5799 10.7596 20.6611 10.9933 20.6627C11.1786 20.6627 11.3614 20.6066 11.5076 20.492C11.7489 20.3034 11.8781 20.018 11.8635 19.7148L11.6295 14.6591H19.293C19.7269 14.3813 19.995 13.9124 19.995 13.4257C19.995 13.0053 19.8195 12.6077 19.5173 12.33Z" fill="#3E3E3E"/>
</svg>
