<svg width="24" height="21" viewBox="0 0 24 21" fill="none" xmlns="http://www.w3.org/2000/svg">
<path d="M12 5.90625C11.5584 5.91304 11.12 5.98211 10.6983 6.11133C10.8934 6.44902 10.9972 6.8303 11 7.21875C11 7.52038 10.9396 7.81906 10.8224 8.09773C10.7051 8.3764 10.5332 8.6296 10.3166 8.84289C10.0999 9.05617 9.84267 9.22536 9.55957 9.34079C9.27648 9.45622 8.97306 9.51563 8.66665 9.51563C8.27202 9.51293 7.88469 9.41069 7.54164 9.21867C7.27099 10.1427 7.30254 11.1271 7.63181 12.0324C7.96109 12.9378 8.5714 13.7182 9.3763 14.2632C10.1812 14.8082 11.1399 15.09 12.1165 15.0688C13.0932 15.0476 14.0384 14.7245 14.8181 14.1452C15.5978 13.5659 16.1726 12.7597 16.4611 11.841C16.7495 10.9222 16.737 9.93738 16.4253 9.02601C16.1135 8.11464 15.5184 7.32293 14.7242 6.76301C13.9299 6.20309 12.9769 5.90335 12 5.90625ZM23.855 9.90117C21.5954 5.56131 17.1221 2.625 12 2.625C6.87789 2.625 2.40331 5.56336 0.144977 9.90158C0.0496613 10.0872 0 10.2922 0 10.5002C0 10.7082 0.0496613 10.9132 0.144977 11.0988C2.40456 15.4387 6.87789 18.375 12 18.375C17.1221 18.375 21.5966 15.4366 23.855 11.0984C23.9503 10.9128 24 10.7078 24 10.4998C24 10.2918 23.9503 10.0868 23.855 9.90117ZM12 16.4063C7.88956 16.4063 4.12123 14.1504 2.08623 10.5C4.12123 6.84961 7.88914 4.59375 12 4.59375C16.1108 4.59375 19.8787 6.84961 21.9137 10.5C19.8791 14.1504 16.1108 16.4063 12 16.4063Z" fill="#3E3E3E"/>
</svg>
