<svg width="24" height="24" viewBox="0 0 24 24" fill="none" xmlns="http://www.w3.org/2000/svg">
<path d="M12 2C6.47702 2 2 6.47702 2 12C2 17.523 6.47702 22 12 22C17.523 22 22 17.523 22 12C22 6.47702 17.523 2 12 2ZM15.3181 16.4194C15.1609 16.5758 14.996 16.7399 14.8621 16.8742C14.7415 16.9952 14.6565 17.1444 14.6133 17.306C14.5524 17.5343 14.5032 17.7649 14.421 17.9863L13.7198 19.8754C13.1649 19.9964 12.5907 20.0645 12 20.0645V18.9605C12.0681 18.4516 11.6919 17.4984 11.0875 16.894C10.8456 16.652 10.7097 16.3238 10.7097 15.9815V14.6907C10.7097 14.2214 10.4569 13.7899 10.046 13.5629C9.46653 13.2423 8.64234 12.7944 8.07782 12.5101C7.61492 12.277 7.18669 11.9802 6.80161 11.6331L6.76935 11.604C6.49398 11.3555 6.24948 11.0747 6.04113 10.7677C5.6629 10.2125 5.04677 9.29919 4.64637 8.70565C5.47177 6.87097 6.95927 5.39758 8.80766 4.59718L9.77581 5.08145C10.2048 5.29597 10.7097 4.98427 10.7097 4.50444V4.04879C11.0319 3.99677 11.3597 3.96371 11.6931 3.95121L12.8343 5.09234C13.0863 5.34435 13.0863 5.75282 12.8343 6.00484L12.6452 6.19355L12.2282 6.61048C12.1024 6.73629 12.1024 6.94073 12.2282 7.06653L12.4173 7.25564C12.5431 7.38145 12.5431 7.58589 12.4173 7.71169L12.0948 8.03427C12.0342 8.09472 11.9521 8.12866 11.8665 8.12863H11.504C11.4202 8.12863 11.3395 8.16129 11.279 8.22016L10.879 8.60927C10.83 8.65702 10.7974 8.71911 10.786 8.78659C10.7745 8.85406 10.7848 8.92343 10.8153 8.98468L11.444 10.2423C11.5512 10.4569 11.3952 10.7093 11.1556 10.7093H10.9282C10.8504 10.7093 10.7754 10.681 10.7169 10.6302L10.3427 10.3052C10.2581 10.2318 10.1557 10.1816 10.0458 10.1597C9.93585 10.1378 9.8221 10.1449 9.71573 10.1802L8.45887 10.5992C8.36291 10.6312 8.27946 10.6926 8.22033 10.7746C8.16121 10.8567 8.1294 10.9553 8.12944 11.0565C8.12944 11.2391 8.23266 11.4056 8.39597 11.4875L8.84274 11.7109C9.22218 11.9008 9.64073 11.9996 10.0649 11.9996C10.4891 11.9996 10.9758 13.1 11.3552 13.2899H14.0468C14.3891 13.2899 14.7169 13.4258 14.9593 13.6677L15.5113 14.2198C15.7419 14.4505 15.8714 14.7633 15.8714 15.0895C15.8713 15.3367 15.8224 15.5814 15.7274 15.8096C15.6325 16.0378 15.4934 16.2451 15.3181 16.4194ZM18.8145 12.7359C18.581 12.6774 18.3774 12.5343 18.244 12.3339L17.519 11.2464C17.4129 11.0875 17.3563 10.9007 17.3563 10.7097C17.3563 10.5186 17.4129 10.3319 17.519 10.173L18.3089 8.98831C18.4024 8.84839 18.5306 8.73468 18.6815 8.65968L19.2048 8.39798C19.75 9.48347 20.0645 10.7044 20.0645 12C20.0645 12.3496 20.0347 12.6919 19.9911 13.0298L18.8145 12.7359Z" fill="#100D00"/>
</svg>
