<svg width="24" height="24" viewBox="0 0 24 24" fill="none" xmlns="http://www.w3.org/2000/svg">
<path d="M21.9356 7.90309C21.9234 7.06376 21.7679 6.23107 21.4702 5.44606C20.9494 4.10556 19.8887 3.04557 18.546 2.52667C17.7697 2.23506 16.9489 2.07872 16.1182 2.06098C15.0498 2.01331 14.711 2 11.9989 2C9.28676 2 8.93914 2 7.8785 2.06098C7.04887 2.07872 6.22812 2.23506 5.4518 2.52667C4.10906 3.04557 3.04731 4.10556 2.52754 5.44606C2.23545 6.22109 2.07774 7.04047 2.06219 7.86872C2.01444 8.93647 2 9.27464 2 11.9823C2 14.6899 2 15.0358 2.06219 16.0958C2.07885 16.9252 2.23545 17.7434 2.52754 18.5207C3.04842 19.8601 4.10906 20.9201 5.45291 21.439C6.2259 21.7406 7.04665 21.9113 7.87961 21.9379C8.94913 21.9856 9.28787 22 12 22C14.7121 22 15.0598 22 16.1204 21.9379C16.95 21.9213 17.7708 21.7649 18.5482 21.4733C19.8909 20.9533 20.9516 19.8933 21.4725 18.5539C21.7646 17.7778 21.9211 16.9595 21.9378 16.1291C21.9856 15.0624 22 14.7243 22 12.0155C21.9978 9.30791 21.9978 8.96419 21.9356 7.90309ZM11.9922 17.1026C9.15571 17.1026 6.85784 14.8085 6.85784 11.9767C6.85784 9.14492 9.15571 6.85087 11.9922 6.85087C14.8265 6.85087 17.1266 9.14492 17.1266 11.9767C17.1266 14.8085 14.8265 17.1026 11.9922 17.1026ZM17.331 7.85653C16.6679 7.85653 16.1337 7.3221 16.1337 6.66127C16.1337 6.00044 16.6679 5.46602 17.331 5.46602C17.9918 5.46602 18.5271 6.00044 18.5271 6.66127C18.5271 7.3221 17.9918 7.85653 17.331 7.85653Z" fill="#100D00"/>
<path d="M11.9966 15.3133C13.8394 15.3133 15.3333 13.8195 15.3333 11.9767C15.3333 10.1339 13.8394 8.64 11.9966 8.64C10.1538 8.64 8.65992 10.1339 8.65992 11.9767C8.65992 13.8195 10.1538 15.3133 11.9966 15.3133Z" fill="#100D00"/>
</svg>
