<svg width="24" height="24" viewBox="0 0 24 24" fill="none" xmlns="http://www.w3.org/2000/svg">
<path d="M6 12.7499H3V21.7499H16.5L18.75 20.9999L20.25 11.2499V8.99994H12.75C12.5 8.49994 12.15 7.19994 12.75 5.99994C13.5 4.49994 12.75 2.99994 11.25 2.24994C10.05 1.64994 7.75 8.99994 6.75 12.7499H6Z" fill="#EAB817"/>
<path d="M21.1138 12.5543C21.5233 11.9885 21.75 11.2954 21.75 10.5743C21.75 9.43012 21.1382 8.34712 20.1534 7.74319C19.8999 7.58773 19.6113 7.50592 19.3174 7.5062H13.4722L13.6185 4.37442C13.6526 3.6176 13.3967 2.899 12.8994 2.35113C12.6554 2.08109 12.361 1.86623 12.0344 1.71984C11.7078 1.57345 11.356 1.49864 11.0006 1.50002C9.73312 1.50002 8.61188 2.3919 8.2755 3.66856L6.18169 11.5936H3.03C2.59856 11.5936 2.25 11.958 2.25 12.409V21.6846C2.25 22.1356 2.59856 22.5 3.03 22.5H17.6867C17.9109 22.5 18.1303 22.4541 18.3326 22.3624C19.4929 21.8451 20.2412 20.6602 20.2412 19.3453C20.2412 19.0242 20.1973 18.7082 20.1096 18.4024C20.5191 17.8367 20.7457 17.1436 20.7457 16.4225C20.7457 16.1014 20.7019 15.7854 20.6141 15.4796C21.0236 14.9139 21.2503 14.2208 21.2503 13.4996C21.2454 13.1786 21.2016 12.86 21.1138 12.5543ZM4.005 20.6653V13.4283H5.97937V20.6653H4.005ZM19.5173 11.67L18.9834 12.1542L19.3223 12.8014C19.4339 13.0146 19.4918 13.254 19.4904 13.4971C19.4904 13.9176 19.3149 14.3176 19.0127 14.5928L18.4789 15.077L18.8177 15.7242C18.9293 15.9375 18.9872 16.1769 18.9859 16.4199C18.9859 16.8404 18.8104 17.2404 18.5081 17.5157L17.9743 17.9998L18.3131 18.6471C18.4247 18.8603 18.4826 19.0997 18.4813 19.3427C18.4813 19.9135 18.1596 20.4283 17.6623 20.6627H7.53937V13.3468L9.96469 4.16037C10.0272 3.92492 10.1615 3.71719 10.3471 3.56866C10.5327 3.42014 10.7596 3.33891 10.9933 3.33729C11.1786 3.33729 11.3614 3.39336 11.5076 3.50803C11.7489 3.69659 11.8781 3.982 11.8635 4.28524L11.6295 9.34093H19.293C19.7269 9.61869 19.995 10.0876 19.995 10.5743C19.995 10.9947 19.8195 11.3923 19.5173 11.67Z" fill="#3E3E3E"/>
</svg>
