<svg width="14" height="14" viewBox="0 0 14 14" fill="none" xmlns="http://www.w3.org/2000/svg">
<path d="M13.0759 7.3695C13.3489 6.99236 13.5 6.53028 13.5 6.04952C13.5 5.28674 13.0921 4.56475 12.4356 4.16213C12.2666 4.05849 12.0742 4.00394 11.8783 4.00413H7.9815L8.079 1.91628C8.10175 1.41173 7.93113 0.932665 7.59963 0.567419C7.43694 0.387392 7.24067 0.244155 7.02294 0.146562C6.80521 0.0489683 6.57065 -0.000908892 6.33375 1.25376e-05C5.48875 1.25376e-05 4.74125 0.5946 4.517 1.44571L3.12112 6.72904H1.02C0.732375 6.72904 0.5 6.97198 0.5 7.27267V13.4564C0.5 13.7571 0.732375 14 1.02 14H10.7911C10.9406 14 11.0869 13.9694 11.2217 13.9083C11.9952 13.5634 12.4941 12.7735 12.4941 11.8969C12.4941 11.6828 12.4649 11.4722 12.4064 11.2683C12.6794 10.8912 12.8305 10.4291 12.8305 9.94831C12.8305 9.73426 12.8012 9.5236 12.7428 9.31975C13.0157 8.94261 13.1669 8.48053 13.1669 7.99976C13.1636 7.78571 13.1344 7.57336 13.0759 7.3695ZM1.67 12.7768V7.9522H2.98625V12.7768H1.67ZM12.0115 6.78001L11.6556 7.10278L11.8815 7.53429C11.9559 7.67643 11.9945 7.83603 11.9936 7.99806C11.9936 8.27837 11.8766 8.54508 11.6751 8.72856L11.3192 9.05133L11.5451 9.48283C11.6195 9.62497 11.6581 9.78458 11.6572 9.94661C11.6572 10.2269 11.5402 10.4936 11.3387 10.6771L10.9829 10.9999L11.2087 11.4314C11.2832 11.5735 11.3218 11.7331 11.3209 11.8952C11.3209 12.2757 11.1064 12.6189 10.7749 12.7751H4.02625V7.89783L5.64312 1.77358C5.68482 1.61661 5.77432 1.47813 5.89806 1.37911C6.0218 1.28009 6.17305 1.22594 6.32888 1.22486C6.45237 1.22486 6.57425 1.26224 6.67175 1.33868C6.83262 1.4644 6.91875 1.65466 6.909 1.85682L6.753 5.22729H11.862C12.1512 5.41246 12.33 5.72504 12.33 6.04952C12.33 6.32982 12.213 6.59484 12.0115 6.78001Z" fill="#3E3E3E"/>
</svg>
