<svg width="28" height="27" viewBox="0 0 28 27" fill="none" xmlns="http://www.w3.org/2000/svg">
<path d="M8.23844 13.4554C8.23844 13.8343 8.38895 14.1976 8.65685 14.4656C8.92476 14.7335 13.6215 14.884 14.0003 14.884C14.3792 14.884 19.0759 14.7335 19.3438 14.4656C19.6117 14.1976 19.7622 13.8343 19.7622 13.4554C19.7622 13.0765 19.6117 12.7132 19.3438 12.4453C19.0759 12.1773 14.3792 12.0268 14.0003 12.0268C13.6215 12.0268 8.92476 12.1773 8.65685 12.4453C8.38895 12.7132 8.23844 13.0765 8.23844 13.4554ZM26.2978 8.28874C25.6252 6.69052 24.6609 5.256 23.4318 4.02386C22.2112 2.79885 20.7623 1.82511 19.1669 1.15778C17.53 0.470285 15.792 0.12207 14.0003 0.12207H13.9408C12.1373 0.130999 10.3903 0.488142 8.74742 1.19052C7.16576 1.86469 5.73038 2.84016 4.52128 4.06255C3.30403 5.29171 2.34869 6.72028 1.68798 8.31255C1.00347 9.96136 0.658233 11.7143 0.667161 13.5179C0.67726 15.5848 1.16624 17.6212 2.09571 19.4673V23.9911C2.09571 24.3542 2.23995 24.7024 2.49669 24.9592C2.75344 25.2159 3.10166 25.3602 3.46475 25.3602H7.99148C9.83757 26.2897 11.874 26.7786 13.9408 26.7887H14.0033C15.786 26.7887 17.5152 26.4435 19.1431 25.7679C20.7304 25.1085 22.1739 24.1461 23.3931 22.9346C24.6222 21.7173 25.5895 20.2947 26.2651 18.7084C26.9674 17.0655 27.3246 15.3185 27.3335 13.5149C27.3424 11.7024 26.9912 9.9435 26.2978 8.28874ZM21.8008 21.3245C19.7145 23.3899 16.9467 24.5268 14.0003 24.5268H13.9497C12.1551 24.5179 10.3724 24.0715 8.79801 23.2322L8.54802 23.0983H4.35759V18.9078L4.22366 18.6578C3.38439 17.0834 2.93797 15.3006 2.92904 13.506C2.91713 10.5387 4.05105 7.75302 6.13138 5.65481C8.20873 3.55659 10.9855 2.39588 13.9527 2.38398H14.0033C15.4914 2.38398 16.9348 2.67267 18.2949 3.24409C19.6223 3.80064 20.8127 4.60124 21.8365 5.62505C22.8574 6.64588 23.6609 7.83933 24.2175 9.16671C24.7948 10.5417 25.0835 12 25.0776 13.506C25.0597 16.4703 23.896 19.2471 21.8008 21.3245Z" fill="#989898"/>
<path d="M8.65685 9.68702C8.38895 9.41911 8.23844 9.05575 8.23844 8.67687C8.23844 8.29799 8.38895 7.93462 8.65685 7.66671C8.92476 7.3988 13.6215 7.24829 14.0003 7.24829C18.7125 7.24829 19.0759 7.3988 19.3438 7.66671C19.6117 7.93462 19.7622 8.29799 19.7622 8.67687C19.7622 9.05575 19.6117 9.41911 19.3438 9.68702C19.0759 9.95493 18.7125 10.1054 14.0003 10.1054C13.6215 10.1054 8.92476 9.95493 8.65685 9.68702Z" fill="#989898"/>
<path d="M8.65685 19.4673C8.38895 19.1994 8.23844 18.836 8.23844 18.4572C8.23844 18.0783 8.38895 17.7149 8.65685 17.447C8.92476 17.1791 13.6215 17.0286 14.0003 17.0286C14.3792 17.0286 19.0759 17.1791 19.3438 17.447C19.6117 17.7149 19.7622 18.0783 19.7622 18.4572C19.7622 18.836 19.6117 19.1994 19.3438 19.4673C19.0759 19.7352 14.3792 19.8857 14.0003 19.8857C13.6215 19.8857 8.92476 19.7352 8.65685 19.4673Z" fill="#989898"/>
</svg>
