<svg width="24" height="24" viewBox="0 0 24 24" fill="none" xmlns="http://www.w3.org/2000/svg">
<path d="M19.253 4.86672L19.2531 4.86668C19.2303 4.83881 19.2019 4.816 19.1698 4.79971C19.1376 4.78343 19.1025 4.77402 19.0665 4.77209C19.0305 4.77016 18.9946 4.77576 18.9609 4.78852C18.9278 4.80106 18.8976 4.82024 18.8722 4.84488C18.7771 4.94138 18.7787 5.08781 18.8431 5.16869C20.2363 6.79203 21.0016 8.86103 21 11.0004M19.253 4.86672L20.5 11M19.253 4.86672L19.2581 4.87268C20.655 6.52615 21.5 8.66289 21.5 11C21.5 13.3361 20.6557 15.4727 19.2586 17.1367M19.253 4.86672L19.64 4.55C21.11 6.29 22 8.54 22 11C22 13.46 21.11 15.71 19.64 17.46M21 11.0004L20.5 11M21 11.0004C21 11.0003 21 11.0001 21 11H20.5M21 11.0004C20.9999 13.2246 20.184 15.2682 18.8405 16.8443L18.8387 16.8465C18.7785 16.9163 18.7675 17.0604 18.8736 17.1665C18.9721 17.265 19.144 17.2699 19.2586 17.1367M20.5 11C20.5 13.1 19.73 15.03 18.46 16.52C18.21 16.81 18.25 17.25 18.52 17.52C18.84 17.84 19.35 17.8 19.64 17.46M19.2586 17.1367C19.2581 17.1373 19.2576 17.1378 19.2571 17.1384L19.64 17.46M19.2586 17.1367C19.2589 17.1363 19.2593 17.1359 19.2596 17.1355L19.64 17.46M16.7129 14.7193L16.7118 14.7207C16.6472 14.8021 16.6443 14.9372 16.7436 15.0364C16.8523 15.1451 17.031 15.1341 17.1251 15.0133C18.0159 13.8651 18.4996 12.4532 18.5 11L16.7129 14.7193ZM16.7129 14.7193C17.52 13.694 18 12.3958 18 11C18 9.60731 17.522 8.3093 16.7042 7.29238C16.6364 7.20034 16.644 7.06313 16.7336 6.97356L16.7337 6.97339C16.7593 6.94781 16.79 6.92796 16.8238 6.91515C16.8576 6.90234 16.8938 6.89687 16.9299 6.89911C16.966 6.90135 17.0012 6.91123 17.0332 6.92812C17.0651 6.945 17.0932 6.96849 17.1154 6.99704L17.1154 6.99704M16.7129 14.7193L17.1154 6.99704M17.1154 6.99704L17.1173 6.9995M17.1154 6.99704L17.1173 6.9995M17.1173 6.9995C17.9802 8.09434 18.5 9.48604 18.5 10.9999L17.1173 6.9995ZM6 10.9993C5.99606 12.347 6.45325 13.6554 7.29553 14.7073C7.36359 14.7993 7.35612 14.9368 7.26645 15.0264C7.15687 15.136 6.97528 15.1242 6.88177 15.0093C6.01873 13.9038 5.5 12.5123 5.5 11V10.9997C5.49917 9.54682 5.98544 8.13562 6.88101 6.99166C6.90339 6.96439 6.9311 6.94195 6.96245 6.92572C6.99453 6.90912 7.02971 6.89938 7.06576 6.89713C7.10181 6.89487 7.13793 6.90016 7.17182 6.91264C7.2044 6.92463 7.23422 6.94302 7.25955 6.96671C7.35562 7.06564 7.35212 7.19878 7.28825 7.2793L7.28713 7.28072C6.48014 8.30582 6.00017 9.60374 6 10.9993ZM6 10.9993C6 10.999 6 10.9987 6 10.9985L6.5 11M6 10.9993C6 10.9995 6 10.9998 6 11H6.5M6.5 11C6.5 9.72 6.94 8.53 7.68 7.59M6.5 11C6.49622 12.2361 6.91623 13.4361 7.69 14.4C7.92 14.7 7.88 15.12 7.62 15.38L7.68 7.59M7.68 7.59C7.91 7.3 7.88 6.88 7.61 6.61C7.53406 6.53665 7.44368 6.47992 7.3446 6.44344C7.24553 6.40696 7.13994 6.39152 7.03457 6.3981C6.9292 6.40469 6.82635 6.43316 6.73259 6.48169C6.63883 6.53023 6.55621 6.59777 6.49 6.68L7.68 7.59ZM3 11V11C3.00016 13.1418 3.76495 15.213 5.15654 16.8409C5.22161 16.9221 5.22309 17.0698 5.12645 17.1665C5.02792 17.265 4.85602 17.2699 4.74138 17.1367C3.34433 15.4727 2.5 13.3361 2.5 11C2.5 8.66312 3.34492 6.52581 4.74285 4.8616L4.74331 4.86106C4.76682 4.83299 4.79586 4.81005 4.82861 4.79368C4.86137 4.7773 4.89714 4.76784 4.93371 4.76589C4.97027 4.76393 5.00685 4.76951 5.04117 4.78229C5.07404 4.79453 5.10417 4.81313 5.12983 4.837C5.23225 4.9427 5.22081 5.08449 5.16129 5.15353L5.15947 5.15566C3.81597 6.7319 3 8.77567 3 11ZM15 10.5C15 11.3052 14.4939 12.0504 13.8537 12.8826C13.8107 12.9386 13.767 12.995 13.7229 13.0519C13.4579 13.3944 13.1805 13.7529 12.9642 14.1061C12.7964 14.3803 12.6466 14.6798 12.565 15H11.435C11.3534 14.6798 11.2036 14.3803 11.0358 14.1061C10.8195 13.7529 10.5421 13.3944 10.2771 13.0519C10.233 12.995 10.1893 12.9386 10.1463 12.8826C9.50612 12.0504 9 11.3052 9 10.5C9 8.84615 10.3461 7.5 12 7.5C13.6539 7.5 15 8.84615 15 10.5ZM12 17.5C11.7261 17.5 11.5 17.2739 11.5 17H12.5C12.5 17.2739 12.2739 17.5 12 17.5Z" stroke="#3E3E3E"/>
<mask id="mask0" mask-type="alpha" maskUnits="userSpaceOnUse" x="2" y="4" width="20" height="14">
<path d="M19.253 4.86672L19.2531 4.86668C19.2303 4.83881 19.2019 4.816 19.1698 4.79971C19.1376 4.78343 19.1025 4.77402 19.0665 4.77209C19.0305 4.77016 18.9946 4.77576 18.9609 4.78852C18.9278 4.80106 18.8976 4.82024 18.8722 4.84488C18.7771 4.94138 18.7787 5.08781 18.8431 5.16869C20.2363 6.79203 21.0016 8.86103 21 11.0004M19.253 4.86672L20.5 11M19.253 4.86672L19.2581 4.87268C20.655 6.52615 21.5 8.66289 21.5 11C21.5 13.3361 20.6557 15.4727 19.2586 17.1367M19.253 4.86672L19.64 4.55C21.11 6.29 22 8.54 22 11C22 13.46 21.11 15.71 19.64 17.46M21 11.0004L20.5 11M21 11.0004C21 11.0003 21 11.0001 21 11H20.5M21 11.0004C20.9999 13.2246 20.184 15.2682 18.8405 16.8443L18.8387 16.8465C18.7785 16.9163 18.7675 17.0604 18.8736 17.1665C18.9721 17.265 19.144 17.2699 19.2586 17.1367M20.5 11C20.5 13.1 19.73 15.03 18.46 16.52C18.21 16.81 18.25 17.25 18.52 17.52C18.84 17.84 19.35 17.8 19.64 17.46M19.2586 17.1367C19.2581 17.1373 19.2576 17.1378 19.2571 17.1384L19.64 17.46M19.2586 17.1367C19.2589 17.1363 19.2593 17.1359 19.2596 17.1355L19.64 17.46M16.7129 14.7193L16.7118 14.7207C16.6472 14.8021 16.6443 14.9372 16.7436 15.0364C16.8523 15.1451 17.031 15.1341 17.1251 15.0133C18.0159 13.8651 18.4996 12.4532 18.5 11L16.7129 14.7193ZM16.7129 14.7193C17.52 13.694 18 12.3958 18 11C18 9.60731 17.522 8.3093 16.7042 7.29238C16.6364 7.20034 16.644 7.06313 16.7336 6.97356L16.7337 6.97339C16.7593 6.94781 16.79 6.92796 16.8238 6.91515C16.8576 6.90234 16.8938 6.89687 16.9299 6.89911C16.966 6.90135 17.0012 6.91123 17.0332 6.92812C17.0651 6.945 17.0932 6.96849 17.1154 6.99704L17.1154 6.99704M16.7129 14.7193L17.1154 6.99704M17.1154 6.99704L17.1173 6.9995M17.1154 6.99704L17.1173 6.9995M17.1173 6.9995C17.9802 8.09434 18.5 9.48604 18.5 10.9999L17.1173 6.9995ZM6 10.9993C5.99606 12.347 6.45325 13.6554 7.29553 14.7073C7.36359 14.7993 7.35612 14.9368 7.26645 15.0264C7.15687 15.136 6.97528 15.1242 6.88177 15.0093C6.01873 13.9038 5.5 12.5123 5.5 11V10.9997C5.49917 9.54682 5.98544 8.13562 6.88101 6.99166C6.90339 6.96439 6.9311 6.94195 6.96245 6.92572C6.99453 6.90912 7.02971 6.89938 7.06576 6.89713C7.10181 6.89487 7.13793 6.90016 7.17182 6.91264C7.2044 6.92463 7.23422 6.94302 7.25955 6.96671C7.35562 7.06564 7.35212 7.19878 7.28825 7.2793L7.28713 7.28072C6.48014 8.30582 6.00017 9.60374 6 10.9993ZM6 10.9993C6 10.999 6 10.9987 6 10.9985L6.5 11M6 10.9993C6 10.9995 6 10.9998 6 11H6.5M6.5 11C6.5 9.72 6.94 8.53 7.68 7.59M6.5 11C6.49622 12.2361 6.91623 13.4361 7.69 14.4C7.92 14.7 7.88 15.12 7.62 15.38L7.68 7.59M7.68 7.59C7.91 7.3 7.88 6.88 7.61 6.61C7.53406 6.53665 7.44368 6.47992 7.3446 6.44344C7.24553 6.40696 7.13994 6.39152 7.03457 6.3981C6.9292 6.40469 6.82635 6.43316 6.73259 6.48169C6.63883 6.53023 6.55621 6.59777 6.49 6.68L7.68 7.59ZM3 11V11C3.00016 13.1418 3.76495 15.213 5.15654 16.8409C5.22161 16.9221 5.22309 17.0698 5.12645 17.1665C5.02792 17.265 4.85602 17.2699 4.74138 17.1367C3.34433 15.4727 2.5 13.3361 2.5 11C2.5 8.66312 3.34492 6.52581 4.74285 4.8616L4.74331 4.86106C4.76682 4.83299 4.79586 4.81005 4.82861 4.79368C4.86137 4.7773 4.89714 4.76784 4.93371 4.76589C4.97027 4.76393 5.00685 4.76951 5.04117 4.78229C5.07404 4.79453 5.10417 4.81313 5.12983 4.837C5.23225 4.9427 5.22081 5.08449 5.16129 5.15353L5.15947 5.15566C3.81597 6.7319 3 8.77567 3 11ZM15 10.5C15 11.3052 14.4939 12.0504 13.8537 12.8826C13.8107 12.9386 13.767 12.995 13.7229 13.0519C13.4579 13.3944 13.1805 13.7529 12.9642 14.1061C12.7964 14.3803 12.6466 14.6798 12.565 15H11.435C11.3534 14.6798 11.2036 14.3803 11.0358 14.1061C10.8195 13.7529 10.5421 13.3944 10.2771 13.0519C10.233 12.995 10.1893 12.9386 10.1463 12.8826C9.50612 12.0504 9 11.3052 9 10.5C9 8.84615 10.3461 7.5 12 7.5C13.6539 7.5 15 8.84615 15 10.5ZM12 17.5C11.7261 17.5 11.5 17.2739 11.5 17H12.5C12.5 17.2739 12.2739 17.5 12 17.5Z" stroke="#3E3E3E"/>
</mask>
<g mask="url(#mask0)">
<path d="M7.49999 10.5C7.49999 9.29998 9.16666 5.99998 9.99999 4.49998C10.792 2.99998 6 1.99997 5 2.49997C4 2.99997 1.49999 4.99997 -1.14441e-05 8.49997C-1.50001 12 -1.14441e-05 12 1.99999 16C3.99999 20 4.99999 20.5 8.99999 22C13 23.5 15 22 16.5 22C18 22 24.5 16 25 11.5C25.5 6.99997 22 2.49998 19 1.49998C16 0.499975 14.5 3.49998 15 4.99998C15.5 6.49998 16.5 8.49998 16 11C15.5 13.5 15.5 13.5 15.5 15.5C15.5 17.5 15.5 19 13.5 20C11.5 21 8.99999 17.5 8.99999 16.5C8.99999 15.5 7.49999 12 7.49999 10.5Z" fill="#EAB817"/>
</g>
</svg>
