<svg width="24" height="24" viewBox="0 0 24 24" fill="none" xmlns="http://www.w3.org/2000/svg">
<path d="M22.4813 18.7367L20.1895 16.445C19.1933 15.4487 18.0101 14.6589 16.7079 14.1209C16.2204 13.9195 16.0475 13.3176 16.2946 12.8515C16.921 11.6698 17.2515 10.3478 17.25 9C17.25 4.45092 13.5491 0.75 9 0.75C4.45092 0.75 0.75 4.45092 0.75 9C0.75 13.5491 4.45092 17.25 9 17.25C10.3622 17.2516 11.6977 16.914 12.8887 16.275C13.3531 16.0258 13.9555 16.1972 14.1567 16.6843C14.6924 17.9806 15.4786 19.1585 16.4704 20.1504L18.7687 22.449C19.0125 22.6927 19.3019 22.8861 19.6204 23.018C19.9388 23.15 20.2802 23.2179 20.6249 23.2179C20.9696 23.2179 21.311 23.15 21.6295 23.0181C21.948 22.8862 22.2374 22.6928 22.4811 22.4491C22.7249 22.2053 22.9183 21.9159 23.0502 21.5975C23.1821 21.279 23.25 20.9376 23.2501 20.5929C23.2501 20.2482 23.1822 19.9068 23.0503 19.5883C22.9184 19.2698 22.725 18.9805 22.4813 18.7367ZM2.25 9C2.25 5.27812 5.27812 2.25 9 2.25C12.7219 2.25 15.75 5.27812 15.75 9C15.75 12.7219 12.7219 15.75 9 15.75C5.27812 15.75 2.25 12.7219 2.25 9ZM21.4205 21.3883C21.2094 21.599 20.9233 21.7173 20.625 21.7173C20.3267 21.7173 20.0406 21.599 19.8295 21.3883L17.3154 18.8743C16.6056 18.1644 16.0429 17.3214 15.6595 16.3936C15.4602 15.911 15.9432 15.428 16.4258 15.6274C17.3536 16.0107 18.1967 16.5734 18.9066 17.2833L21.4206 19.7973C21.6313 20.0085 21.7495 20.2946 21.7495 20.5928C21.7495 20.8911 21.6312 21.1772 21.4205 21.3883Z" fill="#BBBBBB"/>
</svg>
