<svg width="24" height="24" viewBox="0 0 24 24" fill="none" xmlns="http://www.w3.org/2000/svg">
<path d="M17.2493 14.9999C16.6879 15.0027 16.1343 15.1316 15.6293 15.3769C15.1244 15.6222 14.681 15.9778 14.3318 16.4174L8.84928 12.9899C9.0491 12.345 9.0491 11.6548 8.84928 11.0099L14.3318 7.58241C14.8882 8.27145 15.6706 8.74129 16.5403 8.90871C17.41 9.07614 18.3109 8.93033 19.0834 8.49713C19.8559 8.06392 20.4502 7.37128 20.7609 6.54189C21.0716 5.71251 21.0787 4.79992 20.781 3.96578C20.4833 3.13165 19.8999 2.4298 19.1343 1.98458C18.3687 1.53936 17.4702 1.3795 16.5979 1.53331C15.7257 1.68713 14.9361 2.14469 14.3689 2.82495C13.8018 3.50521 13.4937 4.36425 13.4993 5.24991C13.5028 5.58529 13.5533 5.91853 13.6493 6.23991L8.16678 9.66741C7.68277 9.05809 7.02119 8.61445 6.27375 8.39795C5.52631 8.18146 4.73003 8.20286 3.99529 8.45917C3.26055 8.71548 2.62375 9.19401 2.17315 9.82844C1.72255 10.4629 1.48047 11.2217 1.48047 11.9999C1.48047 12.7781 1.72255 13.537 2.17315 14.1714C2.62375 14.8058 3.26055 15.2843 3.99529 15.5406C4.73003 15.797 5.52631 15.8184 6.27375 15.6019C7.02119 15.3854 7.68277 14.9417 8.16678 14.3324L13.6493 17.7599C13.5533 18.0813 13.5028 18.4145 13.4993 18.7499C13.4993 19.4916 13.7192 20.2166 14.1313 20.8333C14.5433 21.45 15.129 21.9306 15.8142 22.2145C16.4994 22.4983 17.2534 22.5725 17.9809 22.4279C18.7083 22.2832 19.3765 21.926 19.9009 21.4016C20.4254 20.8771 20.7825 20.2089 20.9272 19.4815C21.0719 18.7541 20.9977 18.0001 20.7138 17.3148C20.43 16.6296 19.9494 16.044 19.3327 15.6319C18.716 15.2198 17.991 14.9999 17.2493 14.9999ZM17.2493 2.99991C17.6943 2.99991 18.1293 3.13187 18.4993 3.3791C18.8693 3.62634 19.1577 3.97774 19.328 4.38887C19.4983 4.8 19.5429 5.2524 19.456 5.68886C19.3692 6.12532 19.1549 6.52623 18.8403 6.8409C18.5256 7.15557 18.1247 7.36986 17.6882 7.45668C17.2518 7.54349 16.7994 7.49893 16.3882 7.32864C15.9771 7.15834 15.6257 6.86995 15.3785 6.49994C15.1312 6.12993 14.9993 5.69492 14.9993 5.24991C14.9993 4.65317 15.2363 4.08088 15.6583 3.65892C16.0802 3.23696 16.6525 2.99991 17.2493 2.99991ZM5.24928 14.2499C4.80428 14.2499 4.36926 14.1179 3.99925 13.8707C3.62924 13.6235 3.34085 13.2721 3.17055 12.8609C3.00026 12.4498 2.9557 11.9974 3.04252 11.561C3.12933 11.1245 3.34362 10.7236 3.65829 10.4089C3.97296 10.0942 4.37387 9.87996 4.81033 9.79314C5.24679 9.70632 5.69919 9.75088 6.11032 9.92118C6.52145 10.0915 6.87286 10.3799 7.12009 10.7499C7.36732 11.1199 7.49928 11.5549 7.49928 11.9999C7.49928 12.5966 7.26223 13.1689 6.84027 13.5909C6.41832 14.0129 5.84602 14.2499 5.24928 14.2499ZM17.2493 20.9999C16.8043 20.9999 16.3693 20.8679 15.9992 20.6207C15.6292 20.3735 15.3408 20.0221 15.1706 19.6109C15.0003 19.1998 14.9557 18.7474 15.0425 18.311C15.1293 17.8745 15.3436 17.4736 15.6583 17.1589C15.973 16.8442 16.3739 16.63 16.8103 16.5431C17.2468 16.4563 17.6992 16.5009 18.1103 16.6712C18.5215 16.8415 18.8729 17.1299 19.1201 17.4999C19.3673 17.8699 19.4993 18.3049 19.4993 18.7499C19.4993 19.3466 19.2622 19.9189 18.8403 20.3409C18.4183 20.7629 17.846 20.9999 17.2493 20.9999Z" fill="#100D00"/>
</svg>
