<svg width="14" height="14" viewBox="0 0 14 14" fill="none" xmlns="http://www.w3.org/2000/svg">
<path d="M3.34448 8.54883L2.35115 12.8502C2.28981 13.1162 2.39648 13.3928 2.62181 13.5482C2.73581 13.6268 2.86781 13.6668 3.00048 13.6668C3.12915 13.6668 3.25848 13.6295 3.37048 13.5548L7.00048 11.1348L10.6305 13.5548C10.8625 13.7095 11.1671 13.7035 11.3938 13.5388C11.6191 13.3742 11.7185 13.0855 11.6418 12.8175L10.4225 8.55083L13.4465 5.8295C13.6445 5.65083 13.7171 5.37216 13.6318 5.12016C13.5458 4.86816 13.3185 4.69083 13.0531 4.6695L9.25248 4.36683L7.60781 0.726163C7.50048 0.486829 7.26248 0.333496 7.00048 0.333496C6.73848 0.333496 6.50048 0.486829 6.39315 0.726163L4.74848 4.36683L0.947812 4.66883C0.686479 4.6895 0.461812 4.86083 0.373812 5.10683C0.284479 5.35283 0.348479 5.62816 0.535146 5.81083L3.34448 8.54883ZM5.24648 5.66483C5.48848 5.6455 5.70181 5.49616 5.80115 5.27416L7.00048 2.62016L8.19981 5.27416C8.29915 5.49616 8.51248 5.6455 8.75448 5.66483L11.4025 5.87483L9.22181 7.8375C9.03248 8.00816 8.95715 8.27083 9.02648 8.51616L9.86181 11.4395L7.37115 9.77883C7.14715 9.62883 6.85581 9.62883 6.63181 9.77883L4.02915 11.5142L4.72915 8.4835C4.78115 8.25683 4.71181 8.01883 4.54515 7.85683L2.51981 5.88216L5.24648 5.66483Z" fill="#EAB817"/>
</svg>
