<svg width="14" height="14" viewBox="0 0 14 14" fill="none" xmlns="http://www.w3.org/2000/svg">
<path d="M2.35048 12.8502C2.28915 13.1162 2.39581 13.3928 2.62115 13.5482C2.73581 13.6268 2.86781 13.6668 3.00048 13.6668C3.12915 13.6668 3.25848 13.6295 3.37048 13.5548L7.00048 11.1348L10.6305 13.5548C10.8625 13.7095 11.1665 13.7035 11.3938 13.5388C11.6191 13.3742 11.7185 13.0855 11.6418 12.8175L10.4225 8.55083L13.4465 5.8295C13.6445 5.6515 13.7171 5.37216 13.6318 5.12016C13.5458 4.86816 13.3185 4.69016 13.0531 4.6695L9.25248 4.36683L7.60781 0.726163C7.50048 0.486829 7.26248 0.333496 7.00048 0.333496C6.73848 0.333496 6.50048 0.486829 6.39315 0.725496L4.74848 4.36683L0.947812 4.66883C0.686479 4.6895 0.461812 4.86083 0.373812 5.10683C0.284479 5.35283 0.348479 5.62816 0.535146 5.81083L3.34448 8.54883L2.35048 12.8502ZM7.00048 2.6195L8.36181 5.6335L8.75381 5.66483C8.75448 5.66483 8.75448 5.66483 8.75448 5.66483L11.4025 5.87483L9.22181 7.8375C9.22115 7.83816 9.22115 7.83816 9.22115 7.83883L8.91248 8.11616L9.02648 8.51416C9.02648 8.51416 9.02648 8.5155 9.02648 8.51616L9.86181 11.4395L7.00048 9.53216V2.6195Z" fill="#EAB817"/>
</svg>
