<svg width="14" height="14" viewBox="0 0 14 14" fill="none" xmlns="http://www.w3.org/2000/svg">
<path d="M13.6316 5.1195C13.5456 4.8675 13.3183 4.6895 13.053 4.66883L9.25231 4.36683L7.60764 0.726163C7.50031 0.486829 7.26231 0.333496 7.00031 0.333496C6.73831 0.333496 6.50031 0.486829 6.39298 0.725496L4.74831 4.36683L0.947645 4.66883C0.686978 4.6895 0.462311 4.86083 0.373645 5.10683C0.284978 5.35283 0.347645 5.62816 0.534978 5.81083L3.34364 8.54883L2.35031 12.8502C2.28898 13.1162 2.39631 13.3928 2.62098 13.5482C2.73564 13.6268 2.86764 13.6668 3.00031 13.6668C3.12898 13.6668 3.25831 13.6295 3.37031 13.5548L7.00031 11.1348L10.6303 13.5548C10.8623 13.7095 11.167 13.7035 11.3936 13.5388C11.619 13.3742 11.7183 13.0855 11.6416 12.8175L10.4223 8.55083L13.4463 5.8295C13.6443 5.65083 13.717 5.37216 13.6316 5.1195Z" fill="#EAB817"/>
</svg>
