<svg width="24" height="24" viewBox="0 0 24 24" fill="none" xmlns="http://www.w3.org/2000/svg">
<path d="M21.5414 6.81264C21.6812 6.34381 21.5414 6 20.8807 6H18.6919C18.135 6 17.8805 6.29743 17.7407 6.6241C17.7407 6.6241 16.6279 9.36548 15.0509 11.143C14.5419 11.6602 14.3093 11.8236 14.0319 11.8236C13.8931 11.8236 13.6915 11.6602 13.6915 11.1914V6.81264C13.6915 6.25004 13.5308 6 13.0667 6H9.62734C9.28001 6 9.07041 6.26012 9.07041 6.50815C9.07041 7.0405 9.85889 7.1635 9.93974 8.66375V11.9183C9.93974 12.6312 9.81298 12.7612 9.53352 12.7612C8.79194 12.7612 6.98741 10.0097 5.91647 6.86002C5.70787 6.24803 5.49728 6.00101 4.93835 6.00101H2.75056C2.12476 6.00101 2 6.29844 2 6.62511C2 7.2119 2.74157 10.1156 5.45436 13.956C7.26288 16.5784 9.80899 18 12.1285 18C13.5189 18 13.6905 17.6844 13.6905 17.14V15.1578C13.6905 14.5266 13.8233 14.3996 14.2634 14.3996C14.5868 14.3996 15.1437 14.5649 16.4422 15.8283C17.9254 17.3265 18.1709 17.999 19.0043 17.999H21.1921C21.8169 17.999 22.1293 17.6834 21.9497 17.0603C21.753 16.4403 21.0444 15.5379 20.1042 14.4702C19.5932 13.8612 18.8296 13.2058 18.5971 12.8782C18.2727 12.4557 18.3665 12.2692 18.5971 11.8941C18.5981 11.8951 21.264 8.10217 21.5414 6.81264Z" fill="#100D00"/>
</svg>
