<svg width="24" height="24" viewBox="0 0 24 24" fill="none" xmlns="http://www.w3.org/2000/svg">
<rect x="3" y="4.80005" width="19.2" height="14.4" fill="white"/>
<path d="M21.75 0H2.25C1.0125 0 0 1.0125 0 2.25V21.75C0 22.9875 1.0125 24 2.25 24H21.75C22.9875 24 24 22.9875 24 21.75V2.25C24 1.0125 22.9875 0 21.75 0ZM19.4385 16.8L17.244 16.833C17.244 16.833 16.77 16.9275 16.152 16.5C15.3315 15.9375 14.5575 14.4705 13.953 14.6625C13.344 14.8545 13.362 16.1715 13.362 16.1715C13.362 16.1715 13.3665 16.4535 13.2255 16.602C13.0755 16.7655 12.7755 16.7985 12.7755 16.7985H11.796C11.796 16.7985 9.63 16.9305 7.722 14.9415C5.64 12.7755 3.804 8.478 3.804 8.478C3.804 8.478 3.696 8.196 3.813 8.061C3.9435 7.9065 4.296 7.8975 4.296 7.8975L6.645 7.884C6.645 7.884 6.8655 7.9215 7.0245 8.0385C7.1565 8.133 7.2255 8.3145 7.2255 8.3145C7.2255 8.3145 7.605 9.276 8.1075 10.143C9.087 11.835 9.546 12.2055 9.879 12.027C10.362 11.7645 10.2165 9.6315 10.2165 9.6315C10.2165 9.6315 10.2255 8.8575 9.9735 8.5155C9.777 8.2485 9.4065 8.169 9.2475 8.1495C9.1155 8.13 9.3315 7.8255 9.6135 7.686C10.035 7.479 10.7805 7.4655 11.6625 7.4745C12.3465 7.479 12.549 7.5255 12.816 7.587C13.6275 7.7835 13.35 8.538 13.35 10.3485C13.35 10.9305 13.2465 11.745 13.6635 12.012C13.842 12.129 14.2815 12.03 15.384 10.161C15.9045 9.2745 16.2975 8.235 16.2975 8.235C16.2975 8.235 16.3815 8.0475 16.5135 7.968C16.65 7.8885 16.833 7.9125 16.833 7.9125L19.3035 7.899C19.3035 7.899 20.0445 7.8105 20.166 8.148C20.292 8.499 19.89 9.3195 18.882 10.665C17.2275 12.873 17.04 12.666 18.4185 13.941C19.731 15.1605 20.0025 15.7545 20.0505 15.8295C20.5845 16.7295 19.4415 16.8 19.4415 16.8H19.4385Z" fill="#45668E"/>
</svg>
